<svg xmlns="http://www.w3.org/2000/svg" width="1600" height="700" viewBox="0 0 1600 700" role="img">
<defs>
<linearGradient id="bg" x1="0" y1="0" x2="1" y2="1">
  <stop offset="0" stop-color="#080b18"/>
  <stop offset="0.52" stop-color="#17112f"/>
  <stop offset="1" stop-color="#0b2132"/>
</linearGradient>
</defs>

<rect width="1600" height="700" rx="40" fill="url(#bg)"/>
<text x="50" y="52" font-family="Inter,Arial,sans-serif" font-size="22" fill="#d8b4fe" letter-spacing="3">CAROUSEL SYSTEM</text>
<g transform="translate(50 85)">
  <rect width="330" height="500" rx="28" fill="#111827" stroke="#ffffff" stroke-opacity=".12"/>
  <circle cx="248" cy="98" r="76" fill="#8b5cf6" opacity=".92"/>
  <text x="28" y="48" font-family="Inter,Arial,sans-serif" font-size="18" fill="#94a3b8">01</text>
  <text x="28" y="274" font-family="Inter,Arial,sans-serif" font-size="50" fill="#fff" font-weight="900">HOOK</text>
  <text x="28" y="322" font-family="Inter,Arial,sans-serif" font-size="20" fill="#cbd5e1">One reusable system.</text>
  <text x="28" y="352" font-family="Inter,Arial,sans-serif" font-size="20" fill="#cbd5e1">Four narrative beats.</text>
  <rect x="28" y="420" width="110" height="12" rx="6" fill="#8b5cf6"/>
</g>
<g transform="translate(430 85)">
  <rect width="330" height="500" rx="28" fill="#0f172a" stroke="#ffffff" stroke-opacity=".12"/>
  <circle cx="248" cy="98" r="76" fill="#06b6d4" opacity=".92"/>
  <text x="28" y="48" font-family="Inter,Arial,sans-serif" font-size="18" fill="#94a3b8">02</text>
  <text x="28" y="274" font-family="Inter,Arial,sans-serif" font-size="50" fill="#fff" font-weight="900">PROOF</text>
  <text x="28" y="322" font-family="Inter,Arial,sans-serif" font-size="20" fill="#cbd5e1">Responsive layouts.</text>
  <text x="28" y="352" font-family="Inter,Arial,sans-serif" font-size="20" fill="#cbd5e1">Real content, no breaks.</text>
  <rect x="28" y="420" width="142" height="12" rx="6" fill="#06b6d4"/>
</g>
<g transform="translate(810 85)">
  <rect width="330" height="500" rx="28" fill="#1f2937" stroke="#ffffff" stroke-opacity=".12"/>
  <circle cx="248" cy="98" r="76" fill="#f97316" opacity=".92"/>
  <text x="28" y="48" font-family="Inter,Arial,sans-serif" font-size="18" fill="#94a3b8">03</text>
  <text x="28" y="274" font-family="Inter,Arial,sans-serif" font-size="50" fill="#fff" font-weight="900">SYSTEM</text>
  <text x="28" y="322" font-family="Inter,Arial,sans-serif" font-size="20" fill="#cbd5e1">Templates as an API.</text>
  <text x="28" y="352" font-family="Inter,Arial,sans-serif" font-size="20" fill="#cbd5e1">Themes and repeaters.</text>
  <rect x="28" y="420" width="174" height="12" rx="6" fill="#f97316"/>
</g>
<g transform="translate(1190 85)">
  <rect width="330" height="500" rx="28" fill="#17112f" stroke="#ffffff" stroke-opacity=".12"/>
  <circle cx="248" cy="98" r="76" fill="#ec4899" opacity=".92"/>
  <text x="28" y="48" font-family="Inter,Arial,sans-serif" font-size="18" fill="#94a3b8">04</text>
  <text x="28" y="274" font-family="Inter,Arial,sans-serif" font-size="50" fill="#fff" font-weight="900">ACTION</text>
  <text x="28" y="322" font-family="Inter,Arial,sans-serif" font-size="20" fill="#cbd5e1">Validate, render, publish.</text>
  <text x="28" y="352" font-family="Inter,Arial,sans-serif" font-size="20" fill="#cbd5e1">Automate the pipeline.</text>
  <rect x="28" y="420" width="206" height="12" rx="6" fill="#ec4899"/>
</g>

</svg>
