<svg xmlns="http://www.w3.org/2000/svg" width="1600" height="850" viewBox="0 0 1600 850" role="img">
<defs><linearGradient id="bg" x1="0" y1="0" x2="1" y2="1"><stop offset="0" stop-color="#080b18"/><stop offset="0.52" stop-color="#17112f"/><stop offset="1" stop-color="#0b2132"/></linearGradient></defs>
<rect width="1600" height="850" rx="40" fill="url(#bg)"/>
<text x="70" y="85" font-family="Inter,Arial,sans-serif" font-size="38" fill="#fff" font-weight="800">One design system. Every social surface.</text>
<text x="70" y="122" font-family="Inter,Arial,sans-serif" font-size="20" fill="#94a3b8">Profiles encode dimensions, crop metadata, safe areas, UI zones, format and file-size guidance.</text>
<g transform="translate(70 155)"><rect width="430" height="230" rx="28" fill="#ffffff" opacity=".055" stroke="#ffffff" stroke-opacity=".1"/><rect x="26" y="26" width="164" height="178" rx="22" fill="#ec4899" opacity=".9"/><circle cx="142" cy="72" r="34" fill="#fff" opacity=".25"/><rect x="48" y="133" width="112" height="12" rx="6" fill="#fff" opacity=".8"/><text x="220" y="82" font-family="Inter,Arial,sans-serif" font-size="23" fill="#fff" font-weight="800">IG POST</text><text x="220" y="122" font-family="Inter,Arial,sans-serif" font-size="19" fill="#94a3b8">1:1</text><text x="220" y="162" font-family="Inter,Arial,sans-serif" font-size="17" fill="#cbd5e1">Safe areas</text><text x="220" y="190" font-family="Inter,Arial,sans-serif" font-size="17" fill="#cbd5e1">Export guidance</text></g>
<g transform="translate(570 155)"><rect width="430" height="230" rx="28" fill="#ffffff" opacity=".055" stroke="#ffffff" stroke-opacity=".1"/><rect x="26" y="26" width="164" height="178" rx="22" fill="#8b5cf6" opacity=".9"/><circle cx="142" cy="72" r="34" fill="#fff" opacity=".25"/><rect x="48" y="133" width="112" height="12" rx="6" fill="#fff" opacity=".8"/><text x="220" y="82" font-family="Inter,Arial,sans-serif" font-size="23" fill="#fff" font-weight="800">IG PORTRAIT</text><text x="220" y="122" font-family="Inter,Arial,sans-serif" font-size="19" fill="#94a3b8">4:5</text><text x="220" y="162" font-family="Inter,Arial,sans-serif" font-size="17" fill="#cbd5e1">Safe areas</text><text x="220" y="190" font-family="Inter,Arial,sans-serif" font-size="17" fill="#cbd5e1">Export guidance</text></g>
<g transform="translate(1070 155)"><rect width="430" height="230" rx="28" fill="#ffffff" opacity=".055" stroke="#ffffff" stroke-opacity=".1"/><rect x="26" y="26" width="164" height="178" rx="22" fill="#06b6d4" opacity=".9"/><circle cx="142" cy="72" r="34" fill="#fff" opacity=".25"/><rect x="48" y="133" width="112" height="12" rx="6" fill="#fff" opacity=".8"/><text x="220" y="82" font-family="Inter,Arial,sans-serif" font-size="23" fill="#fff" font-weight="800">STORY</text><text x="220" y="122" font-family="Inter,Arial,sans-serif" font-size="19" fill="#94a3b8">9:16</text><text x="220" y="162" font-family="Inter,Arial,sans-serif" font-size="17" fill="#cbd5e1">UI zones</text><text x="220" y="190" font-family="Inter,Arial,sans-serif" font-size="17" fill="#cbd5e1">Export guidance</text></g>
<g transform="translate(70 455)"><rect width="430" height="230" rx="28" fill="#ffffff" opacity=".055" stroke="#ffffff" stroke-opacity=".1"/><rect x="26" y="26" width="164" height="178" rx="22" fill="#ef4444" opacity=".9"/><circle cx="142" cy="72" r="34" fill="#fff" opacity=".25"/><rect x="48" y="133" width="112" height="12" rx="6" fill="#fff" opacity=".8"/><text x="220" y="82" font-family="Inter,Arial,sans-serif" font-size="23" fill="#fff" font-weight="800">YOUTUBE</text><text x="220" y="122" font-family="Inter,Arial,sans-serif" font-size="19" fill="#94a3b8">16:9</text><text x="220" y="162" font-family="Inter,Arial,sans-serif" font-size="17" fill="#cbd5e1">Safe areas</text><text x="220" y="190" font-family="Inter,Arial,sans-serif" font-size="17" fill="#cbd5e1">File-size limit</text></g>
<g transform="translate(570 455)"><rect width="430" height="230" rx="28" fill="#ffffff" opacity=".055" stroke="#ffffff" stroke-opacity=".1"/><rect x="26" y="26" width="164" height="178" rx="22" fill="#2563eb" opacity=".9"/><circle cx="142" cy="72" r="34" fill="#fff" opacity=".25"/><rect x="48" y="133" width="112" height="12" rx="6" fill="#fff" opacity=".8"/><text x="220" y="82" font-family="Inter,Arial,sans-serif" font-size="23" fill="#fff" font-weight="800">LINKEDIN</text><text x="220" y="122" font-family="Inter,Arial,sans-serif" font-size="19" fill="#94a3b8">1:1</text><text x="220" y="162" font-family="Inter,Arial,sans-serif" font-size="17" fill="#cbd5e1">Safe areas</text><text x="220" y="190" font-family="Inter,Arial,sans-serif" font-size="17" fill="#cbd5e1">PNG guidance</text></g>
<g transform="translate(1070 455)"><rect width="430" height="230" rx="28" fill="#ffffff" opacity=".055" stroke="#ffffff" stroke-opacity=".1"/><rect x="26" y="26" width="164" height="178" rx="22" fill="#64748b" opacity=".9"/><circle cx="142" cy="72" r="34" fill="#fff" opacity=".25"/><rect x="48" y="133" width="112" height="12" rx="6" fill="#fff" opacity=".8"/><text x="220" y="82" font-family="Inter,Arial,sans-serif" font-size="23" fill="#fff" font-weight="800">X BANNER</text><text x="220" y="122" font-family="Inter,Arial,sans-serif" font-size="19" fill="#94a3b8">3:1</text><text x="220" y="162" font-family="Inter,Arial,sans-serif" font-size="17" fill="#cbd5e1">Crop metadata</text><text x="220" y="190" font-family="Inter,Arial,sans-serif" font-size="17" fill="#cbd5e1">Safe areas</text></g>
</svg>
