<svg xmlns="http://www.w3.org/2000/svg" width="1400" height="850" viewBox="0 0 1400 850" role="img">
<defs>
<linearGradient id="bg" x1="0" y1="0" x2="1" y2="1"><stop offset="0" stop-color="#080b18"/><stop offset="0.52" stop-color="#17112f"/><stop offset="1" stop-color="#0b2132"/></linearGradient>
<linearGradient id="cyan" x1="0" y1="0" x2="1" y2="1"><stop offset="0" stop-color="#22d3ee"/><stop offset="1" stop-color="#3b82f6"/></linearGradient>
<marker id="arrow" markerWidth="10" markerHeight="10" refX="9" refY="3" orient="auto"><path d="M0,0 L0,6 L9,3 z" fill="#64748b"/></marker>
</defs>
<rect width="1400" height="850" rx="36" fill="#08111f"/>
<text x="72" y="82" font-family="Inter,Arial,sans-serif" font-size="34" fill="#fff" font-weight="800">Content → variant → responsive layout → validated render</text>
<g font-family="Inter,Arial,sans-serif">
 <rect x="72" y="156" width="260" height="210" rx="28" fill="#111c31" stroke="#60a5fa" stroke-opacity=".5"/>
 <text x="104" y="204" font-size="22" fill="#93c5fd">CONTENT</text><text x="104" y="250" font-size="20" fill="#e2e8f0">headline</text><text x="104" y="282" font-size="20" fill="#e2e8f0">hero image</text><text x="104" y="314" font-size="20" fill="#e2e8f0">metrics[]</text>
 <path d="M350 260 H438" stroke="#64748b" stroke-width="5" marker-end="url(#arrow)"/>
 <rect x="456" y="156" width="260" height="210" rx="28" fill="#18152f" stroke="#a78bfa" stroke-opacity=".6"/>
 <text x="488" y="204" font-size="22" fill="#c4b5fd">VARIANT</text><text x="488" y="250" font-size="20" fill="#e2e8f0">portrait</text><text x="488" y="282" font-size="20" fill="#e2e8f0">story</text><text x="488" y="314" font-size="20" fill="#e2e8f0">data-heavy</text>
 <path d="M734 260 H822" stroke="#64748b" stroke-width="5" marker-end="url(#arrow)"/>
 <rect x="840" y="156" width="488" height="210" rx="28" fill="#0d2430" stroke="#22d3ee" stroke-opacity=".55"/>
 <text x="872" y="204" font-size="22" fill="#67e8f9">LAYOUT TREE</text><text x="872" y="250" font-size="20" fill="#e2e8f0">safe_area → column → row / grid / overlay</text><text x="872" y="282" font-size="20" fill="#e2e8f0">conditional nodes · repeaters · alignment</text><text x="872" y="314" font-size="20" fill="#e2e8f0">theme tokens · text styles · focal points</text>
 <path d="M700 392 V460" stroke="#64748b" stroke-width="5" marker-end="url(#arrow)"/>
 <rect x="238" y="492" width="924" height="256" rx="32" fill="#ffffff" opacity=".055" stroke="#ffffff" stroke-opacity=".11"/>
 <text x="282" y="548" font-size="22" fill="#fbcfe8">VALIDATED OUTPUT</text>
 <g transform="translate(282 585)"><rect width="248" height="116" rx="22" fill="#151b2e"/><text x="24" y="42" font-size="18" fill="#94a3b8">SAFE AREA</text><text x="24" y="82" font-size="30" fill="#4ade80" font-weight="800">PASS</text></g>
 <g transform="translate(576 585)"><rect width="248" height="116" rx="22" fill="#151b2e"/><text x="24" y="42" font-size="18" fill="#94a3b8">COLLISIONS</text><text x="24" y="82" font-size="30" fill="#4ade80" font-weight="800">0</text></g>
 <g transform="translate(870 585)"><rect width="248" height="116" rx="22" fill="#151b2e"/><text x="24" y="42" font-size="18" fill="#94a3b8">CONTRAST</text><text x="24" y="82" font-size="30" fill="#4ade80" font-weight="800">7.8:1</text></g>
</g>
</svg>
